<svg xmlns="http://www.w3.org/2000/svg" viewBox="0 0 1500 944" role="img" aria-labelledby="diagram-title diagram-desc"><title id="diagram-title">图表能力融入 Knowledge Hub 的交互时序</title><desc id="diagram-desc">Sequence diagram with 5 participants and 11 messages</desc><defs><marker id="sequence-arrow" markerWidth="10" markerHeight="10" refX="8" refY="3" orient="auto"><path d="M0,0 L0,6 L9,3 z" fill="#475569"/></marker><filter id="shadow" x="-20%" y="-20%" width="140%" height="140%"><feDropShadow dx="0" dy="4" stdDeviation="6" flood-color="#0F172A" flood-opacity="0.1"/></filter></defs><line x1="120" y1="86" x2="120" y2="902" stroke="#94A3B8" stroke-width="1.5" stroke-dasharray="7 7"/><rect x="10" y="28" width="220" height="58" rx="12" fill="#FFF9F3" stroke="#DED2C3" stroke-width="1.5"/><text x="120" y="64" text-anchor="middle" font-family="Noto Sans SC, sans-serif" font-size="15" font-weight="700" fill="#7C2D12">AI 内容 Agent</text><line x1="435" y1="86" x2="435" y2="902" stroke="#94A3B8" stroke-width="1.5" stroke-dasharray="7 7"/><rect x="325" y="28" width="220" height="58" rx="12" fill="#F7FAFC" stroke="#CAD7E2" stroke-width="1.5"/><text x="435" y="64" text-anchor="middle" font-family="Noto Sans SC, sans-serif" font-size="15" font-weight="700" fill="#1E3A5F">Diagram Engine</text><line x1="750" y1="86" x2="750" y2="902" stroke="#94A3B8" stroke-width="1.5" stroke-dasharray="7 7"/><rect x="640" y="28" width="220" height="58" rx="12" fill="#FAF8FC" stroke="#D8CEE5" stroke-width="1.5"/><text x="750" y="64" text-anchor="middle" font-family="Noto Sans SC, sans-serif" font-size="15" font-weight="700" fill="#4C1D95">图表资产仓库</text><line x1="1065" y1="86" x2="1065" y2="902" stroke="#94A3B8" stroke-width="1.5" stroke-dasharray="7 7"/><rect x="955" y="28" width="220" height="58" rx="12" fill="#F5FAF8" stroke="#C5DDD8" stroke-width="1.5"/><text x="1065" y="64" text-anchor="middle" font-family="Noto Sans SC, sans-serif" font-size="15" font-weight="700" fill="#115E59">文章运行时</text><line x1="1380" y1="86" x2="1380" y2="902" stroke="#94A3B8" stroke-width="1.5" stroke-dasharray="7 7"/><rect x="1270" y="28" width="220" height="58" rx="12" fill="#FFF9F3" stroke="#DED2C3" stroke-width="1.5"/><text x="1380" y="64" text-anchor="middle" font-family="Noto Sans SC, sans-serif" font-size="15" font-weight="700" fill="#7C2D12">浏览器验收</text><line x1="120" y1="138" x2="435" y2="138" stroke="#475569" stroke-width="2" marker-end="url(#sequence-arrow)"/><rect x="207.5" y="111" width="140" height="22" rx="5" fill="#FCF8F2"/><text x="277.5" y="128" text-anchor="middle" font-family="Noto Sans SC, sans-serif" font-size="13" fill="#334155">compile(DiagramSpec)</text><path d="M 435 204 H 507 V 238 H 443" fill="none" stroke="#475569" stroke-width="2" marker-end="url(#sequence-arrow)"/><rect x="420.5" y="177" width="105" height="22" rx="5" fill="#FCF8F2"/><text x="473" y="194" text-anchor="middle" font-family="Noto Sans SC, sans-serif" font-size="13" fill="#334155">校验 schema、双语与引用</text><line x1="435" y1="270" x2="120" y2="270" stroke="#475569" stroke-width="2" marker-end="url(#sequence-arrow)" stroke-dasharray="7 5"/><rect x="242.5" y="243" width="70" height="22" rx="5" fill="#FCF8F2"/><text x="277.5" y="260" text-anchor="middle" font-family="Noto Sans SC, sans-serif" font-size="13" fill="#334155">失败时返回字段诊断</text><path d="M 435 336 H 507 V 370 H 443" fill="none" stroke="#475569" stroke-width="2" marker-end="url(#sequence-arrow)"/><rect x="431" y="309" width="84" height="22" rx="5" fill="#FCF8F2"/><text x="473" y="326" text-anchor="middle" font-family="Noto Sans SC, sans-serif" font-size="13" fill="#334155">计算容器、节点与连线路由</text><path d="M 435 402 H 507 V 436 H 443" fill="none" stroke="#475569" stroke-width="2" marker-end="url(#sequence-arrow)"/><rect x="434.5" y="375" width="77" height="22" rx="5" fill="#FCF8F2"/><text x="473" y="392" text-anchor="middle" font-family="Noto Sans SC, sans-serif" font-size="13" fill="#334155">检查边界归属与节点重叠</text><line x1="435" y1="468" x2="750" y2="468" stroke="#475569" stroke-width="2" marker-end="url(#sequence-arrow)"/><rect x="512" y="441" width="161" height="22" rx="5" fill="#FCF8F2"/><text x="592.5" y="458" text-anchor="middle" font-family="Noto Sans SC, sans-serif" font-size="13" fill="#334155">写入 JSON、Draw.io 与双语 SVG</text><line x1="750" y1="534" x2="1065" y2="534" stroke="#475569" stroke-width="2" marker-end="url(#sequence-arrow)"/><rect x="869" y="507" width="77" height="22" rx="5" fill="#FCF8F2"/><text x="907.5" y="524" text-anchor="middle" font-family="Noto Sans SC, sans-serif" font-size="13" fill="#334155">按页面语言加载 SVG</text><line x1="1065" y1="600" x2="1380" y2="600" stroke="#475569" stroke-width="2" marker-end="url(#sequence-arrow)"/><rect x="1170" y="573" width="105" height="22" rx="5" fill="#FCF8F2"/><text x="1222.5" y="590" text-anchor="middle" font-family="Noto Sans SC, sans-serif" font-size="13" fill="#334155">渲染阅读、演示与 PPT 场景</text><line x1="1380" y1="666" x2="120" y2="666" stroke="#475569" stroke-width="2" marker-end="url(#sequence-arrow)" stroke-dasharray="7 5"/><rect x="708" y="639" width="84" height="22" rx="5" fill="#FCF8F2"/><text x="750" y="656" text-anchor="middle" font-family="Noto Sans SC, sans-serif" font-size="13" fill="#334155">返回截断、密度或导航问题</text><line x1="120" y1="732" x2="435" y2="732" stroke="#475569" stroke-width="2" marker-end="url(#sequence-arrow)"/><rect x="232" y="705" width="91" height="22" rx="5" fill="#FCF8F2"/><text x="277.5" y="722" text-anchor="middle" font-family="Noto Sans SC, sans-serif" font-size="13" fill="#334155">提交修订后的规格或布局参数</text><line x1="435" y1="798" x2="750" y2="798" stroke="#475569" stroke-width="2" marker-end="url(#sequence-arrow)"/><rect x="554" y="771" width="77" height="22" rx="5" fill="#FCF8F2"/><text x="592.5" y="788" text-anchor="middle" font-family="Noto Sans SC, sans-serif" font-size="13" fill="#334155">重新生成并覆盖候选资产</text></svg>
